<svg width="234" height="251" viewBox="0 0 234 251" fill="none" xmlns="http://www.w3.org/2000/svg">
<path fill-rule="evenodd" clip-rule="evenodd" d="M149.227 114.743V115.154C149.227 118.578 146.566 121.351 143.287 121.351H96.7581C89.5811 121.351 84.0579 114.477 85.0484 106.774L90.3014 63.8535C90.7563 60.2987 93.5593 57.6536 96.8717 57.6536H110.662C113.972 57.6536 116.775 60.2987 117.232 63.8535L122.485 106.774C122.526 107.08 122.554 107.387 122.571 107.691L122.599 107.686C122.599 107.686 123.571 114.743 132.603 114.743H149.227Z" fill="#DCEEFF"/>
<path fill-rule="evenodd" clip-rule="evenodd" d="M99.6931 169.698C99.6931 171.887 97.9152 173.662 95.7225 173.662C93.5296 173.662 91.7522 171.887 91.7522 169.698C91.7522 167.509 93.5296 165.734 95.7225 165.734C97.9152 165.734 99.6931 167.509 99.6931 169.698Z" fill="#B6D4FF"/>
<path fill-rule="evenodd" clip-rule="evenodd" d="M135.924 170.493H96.6858C95.183 170.493 93.9534 169.265 93.9534 167.765C93.9534 166.264 95.183 165.037 96.6858 165.037H135.924C137.427 165.037 138.656 166.264 138.656 167.765C138.656 169.265 137.427 170.493 135.924 170.493Z" fill="#CCE3FF"/>
<path fill-rule="evenodd" clip-rule="evenodd" d="M114.292 169.195H118.318V121.186H114.292V169.195Z" fill="#CCE3FF"/>
<path fill-rule="evenodd" clip-rule="evenodd" d="M130.102 121.186L116.305 127.459L102.507 121.186H130.102Z" fill="#CCE3FF"/>
<path fill-rule="evenodd" clip-rule="evenodd" d="M116.61 170.493H111.518C110.015 170.493 108.786 169.265 108.786 167.765C108.786 166.264 110.015 165.037 111.518 165.037H116.61C118.113 165.037 119.343 166.264 119.343 167.765C119.343 169.265 118.113 170.493 116.61 170.493Z" fill="#B6D4FF"/>
<path fill-rule="evenodd" clip-rule="evenodd" d="M113.27 169.698C113.27 171.887 111.492 173.662 109.3 173.662C107.107 173.662 105.329 171.887 105.329 169.698C105.329 167.509 107.107 165.734 109.3 165.734C111.492 165.734 113.27 167.509 113.27 169.698Z" fill="#B6D4FF"/>
<path fill-rule="evenodd" clip-rule="evenodd" d="M141.12 169.698C141.12 171.887 139.343 173.662 137.15 173.662C134.957 173.662 133.18 171.887 133.18 169.698C133.18 167.509 134.957 165.734 137.15 165.734C139.343 165.734 141.12 167.509 141.12 169.698Z" fill="#B6D4FF"/>
<path d="M101.093 22.2859C91.2593 23.6552 95.379 34.9605 98.1428 41.0646C101.387 48.2295 98.5452 53.0334 98.5452 53.0334L83.3452 47.6464C88.9239 40.5645 82.7628 36.6204 84.2795 28.1765C85.6401 20.602 93.0249 17.1846 97.6909 17.3457C100.02 17.4262 101.926 18.0249 103.435 18.7926C103.492 18.8218 103.547 18.853 103.599 18.886C106.356 16.0604 110.171 14.3716 114.581 14.3716C123.65 14.3716 131.798 21.5139 131.798 30.9975C131.798 40.4812 124.446 48.1691 115.377 48.1691C106.308 48.1691 98.9567 40.4812 98.9567 30.9975C98.9567 27.7563 99.7225 24.7885 101.093 22.2859Z" fill="#19141E"/>
<path fill-rule="evenodd" clip-rule="evenodd" d="M116.982 48.6226C116.982 48.6226 113.609 48.722 112.172 47.9385L116.802 50.8402L116.982 48.6226Z" fill="#CF3E83"/>
<path d="M129.553 35.9358C129.047 39.8414 127.735 45.3448 124.497 47.4945C122.778 48.6347 119.649 48.7753 116.981 48.6217L116.371 56.1839L107.666 52.6072C107.666 52.6072 108.503 44.2614 108.865 41.0621C107.116 39.4794 104.135 38.7453 104.129 36.0562C104.129 35.1242 104.674 33.5129 106.688 33.5077C109.389 33.5051 109.003 36.7382 109.003 36.7382C109.338 36.868 109.674 36.8605 110.009 36.7413C112.684 36.6303 120.125 35.5121 125.184 26.8828C125.774 29.7875 127.001 33.4081 129.553 35.9358Z" fill="#ED4848"/>
<path fill-rule="evenodd" clip-rule="evenodd" d="M124.312 36.7312L126.242 41.4013L124.003 41.3565L124.312 36.7312Z" fill="#405FD3"/>
<path fill-rule="evenodd" clip-rule="evenodd" d="M122.257 36.9336C122.209 37.8666 121.66 38.5934 121.029 38.5572C120.4 38.521 119.928 37.7354 119.976 36.8024C120.024 35.8694 120.574 35.1426 121.204 35.1788C121.834 35.215 122.306 36.0009 122.257 36.9336Z" fill="#0D0B6D"/>
<path fill-rule="evenodd" clip-rule="evenodd" d="M128.174 36.7847C128.126 37.7177 127.576 38.4445 126.946 38.4083C126.316 38.3721 125.844 37.5865 125.892 36.6535C125.94 35.7205 126.49 34.9934 127.12 35.0296C127.75 35.0658 128.222 35.8517 128.174 36.7847Z" fill="#0D0B6D"/>
<path d="M123.454 43.5933C123.454 43.5933 121.995 44.0635 120.533 42.4409" stroke="#1C295E" stroke-width="3"/>
<path opacity="0.402786" fill-rule="evenodd" clip-rule="evenodd" d="M116.976 48.6226C116.976 48.6226 113.604 48.722 112.167 47.9382L116.797 50.84L116.976 48.6226Z" fill="black"/>
<path fill-rule="evenodd" clip-rule="evenodd" d="M103.426 91.0846L101.624 91.0584C101.624 91.0584 101.627 91.03 101.629 90.9701C102.25 91.0141 102.85 91.0505 103.426 91.0846Z" fill="#C83820"/>
<path d="M140.144 110.577L134.196 111.321L124.615 96.3636L124.265 91.3918L109.669 91.1757L103.439 91.0846H103.426C102.85 91.0505 102.25 91.0143 101.629 90.97C93.7821 90.4234 82.91 88.9003 82.1642 84.6831C80.8107 77.0454 91.0491 62.2232 92.2591 60.5051C92.3348 60.3984 92.3736 60.3411 92.3736 60.3411C94.0896 57.8941 95.8162 55.9912 97.4279 54.9786C100.563 53.0079 103.502 52.5756 106.295 52.5836L107.043 47.1716L118.437 48.7411L117.816 53.2396C121.162 53.5598 123.438 54.213 125.569 56.1653C132.409 62.434 132.913 85.9121 132.913 85.9121L140.144 110.577Z" fill="#CE3D29"/>
<path fill-rule="evenodd" clip-rule="evenodd" d="M109.669 91.1756V91.2798C109.669 91.2798 107.056 91.285 103.439 91.0845L109.669 91.1756Z" fill="#C83820"/>
<path opacity="0.201149" d="M124.055 91.3313C124.892 80.7252 130.683 78.4826 126.51 66.5879" stroke="black" stroke-width="3"/>
<path fill-rule="evenodd" clip-rule="evenodd" d="M133.907 104.453L112.148 101.949C111.435 101.867 110.966 101.168 111.161 100.479L119.759 70.1576C119.914 69.6097 120.444 69.2551 121.011 69.3202L142.771 71.8237C143.483 71.9057 143.953 72.6051 143.757 73.2939L135.16 103.615C135.004 104.163 134.474 104.518 133.907 104.453Z" fill="#18181C"/>
<path d="M114.585 93.1215C114.626 93.1325 114.668 93.1439 114.71 93.1558C116.222 93.5677 117.767 93.8168 119.916 93.5341C121.299 93.3537 122.487 93.1178 122.474 92.8976C122.436 92.3413 121.765 92.2166 121.765 92.2166L120.474 92.2788L119.232 92.2054C119.232 92.2054 124.938 91.1282 124.938 90.9614C124.92 90.3738 123.983 90.1356 123.983 90.1356C123.983 90.1356 125.945 89.824 125.923 89.5124C125.869 88.7203 124.993 88.6602 124.993 88.6602C124.993 88.6602 125.236 88.4509 125.212 88.2572C125.116 87.476 123.72 87.3468 123.056 87.2513C123.056 87.2513 120.795 87.2203 120.122 87.0532C118.351 86.6118 117.297 86.2176 116.636 85.8884L121.054 70.3065C121.209 69.7586 121.74 69.404 122.307 69.4691L144.066 71.9728C144.778 72.0546 145.248 72.7541 145.052 73.4429L136.455 103.764C136.3 104.312 135.769 104.667 135.202 104.602L113.443 102.098C112.73 102.016 112.261 101.317 112.456 100.628L114.585 93.1215Z" fill="#FCBDA4"/>
<path fill-rule="evenodd" clip-rule="evenodd" d="M124.938 90.9613C124.92 90.3738 123.983 90.1356 123.983 90.1356C123.983 90.1356 125.945 89.824 125.923 89.5124C125.869 88.7203 124.993 88.6601 124.993 88.6601C124.993 88.6601 125.236 88.4508 125.212 88.2572C125.123 87.5337 123.919 87.3695 123.214 87.2733C123.158 87.2656 123.105 87.2583 123.056 87.2513C123.056 87.2513 120.795 87.2203 120.122 87.0532C116.764 86.2163 115.984 85.5488 115.571 85.1727C115.559 85.1612 115.546 85.15 115.535 85.1391C115.5 85.1078 115.469 85.0789 115.437 85.0526C115.46 85.0276 115.487 84.9857 115.514 84.942C115.553 84.8804 115.594 84.8152 115.632 84.7879L116.205 82.689C115.785 82.7343 115.375 82.7485 114.968 82.7625C114.397 82.7822 113.833 82.8016 113.261 82.9069C111.703 83.194 110.78 83.5548 110.78 83.5548L108.791 84.2334L107.349 89.5613C107.895 90.0466 109.203 91.0035 110.091 91.4864C111.805 92.4182 112.56 92.6078 113.718 92.8987C113.913 92.9476 114.119 92.9993 114.343 93.0579C114.368 93.0646 114.394 93.0713 114.42 93.078C114.514 93.1025 114.611 93.1278 114.71 93.1558C116.222 93.5676 117.767 93.8168 119.916 93.534C121.299 93.3537 122.487 93.1178 122.474 92.8976C122.436 92.3413 121.765 92.2166 121.765 92.2166L120.474 92.2788L119.232 92.2054C119.232 92.2054 124.938 91.1282 124.938 90.9613ZM143.316 114.669C143.074 114.194 141.408 112.197 140.041 110.59L134.347 111.302C133.695 115.141 136.404 120.627 136.404 120.627C136.404 120.627 134.995 119.769 134.715 120.519C134.59 120.853 134.307 123.521 139.585 123.7C140.146 123.72 141.494 122.582 141.494 122.582C141.494 122.582 140.511 124.455 142.016 124.823C142.016 124.823 144.442 121.195 144.479 120.388C144.516 119.581 143.737 115.495 143.316 114.669Z" fill="#E576C6"/>
<path opacity="0.148065" d="M137.482 113.305C137.482 113.305 138.222 116.098 140.764 116.969C141.653 117.273 141.431 120.865 143.61 120.436" stroke="black" stroke-width="3"/>
<path fill-rule="evenodd" clip-rule="evenodd" d="M123.265 72.2938C123.093 72.8311 122.728 73.1947 122.448 73.106C122.168 73.0172 122.08 72.5093 122.252 71.972C122.423 71.4345 122.789 71.0708 123.068 71.1596C123.348 71.2486 123.436 71.7562 123.265 72.2938Z" fill="#020101"/>
<path opacity="0.200498" d="M101.347 68.6912L95.8547 77.769L109.51 83.1625" stroke="black" stroke-width="3"/>
<path fill-rule="evenodd" clip-rule="evenodd" d="M182.455 139.853L179.766 134.571L173.295 135.544L182.097 149.946L201.403 137.156C194.758 135.676 182.455 139.853 182.455 139.853ZM152.222 167.694L152.895 161.829L146.982 159.089L146.108 175.885L169.453 175.845C164.745 170.971 152.222 167.694 152.222 167.694Z" fill="#0D0B6D"/>
<path fill-rule="evenodd" clip-rule="evenodd" d="M180.447 135.32L173.889 136.687L177.665 142.734L183.102 139.425L180.447 135.32ZM152.902 163.026L146.699 160.565L146.509 167.662L152.849 167.894L152.902 163.026Z" fill="#E576C6"/>
<path d="M162.276 129.718L159.066 164.503H144.196L144.856 113.997L116.473 114.193C108.377 114.192 100.545 107.251 101.107 99.1844L101.99 90.9714L145.333 78.1893C153.358 76.3782 156.14 78.7708 161.342 88.0147L184.311 135.012L171.693 143.429L162.276 129.718Z" fill="#2F2F3D"/>
<path opacity="0.150484" fill-rule="evenodd" clip-rule="evenodd" d="M148.955 93.9619L116.473 114.192L144.856 113.997L144.196 164.502H159.066L164.163 109.267C165.421 99.2172 159.12 93.9619 148.955 93.9619Z" fill="#18181C"/>
<path d="M223.083 69.8584V73.5C223.078 82.0359 220.314 90.3415 215.204 97.1781C210.093 104.015 202.909 109.016 194.723 111.436C186.538 113.857 177.789 113.566 169.782 110.608C161.775 107.65 154.939 102.183 150.293 95.0218C145.648 87.861 143.441 79.3903 144.002 70.8729C144.564 62.3556 147.864 54.248 153.41 47.7593C158.956 41.2706 166.451 36.7484 174.777 34.8673C183.103 32.9861 191.814 33.8468 199.61 37.3209" stroke="#64CA81" stroke-width="3.83333" stroke-linecap="round" stroke-linejoin="round"/>
<path d="M223.083 41.8333L183.5 81.4562L171.625 69.5812" stroke="#64CA81" stroke-width="3.83333" stroke-linecap="round" stroke-linejoin="round"/>
</svg>
