<svg width="36" height="36" viewBox="0 0 36 36" fill="none" xmlns="http://www.w3.org/2000/svg">
<path d="M31.5 17.25C31.5052 19.2298 31.0426 21.1829 30.15 22.95C29.0916 25.0677 27.4646 26.8488 25.4512 28.094C23.4377 29.3391 21.1174 29.9991 18.75 30C16.7702 30.0052 14.8172 29.5426 13.05 28.65L4.5 31.5L7.35 22.95C6.4574 21.1829 5.99484 19.2298 6 17.25C6.00092 14.8827 6.66092 12.5623 7.90608 10.5489C9.15124 8.53542 10.9324 6.90839 13.05 5.85004C14.8172 4.95744 16.7702 4.49488 18.75 4.50004H19.5C22.6265 4.67253 25.5796 5.99218 27.7937 8.20633C30.0079 10.4205 31.3275 13.3735 31.5 16.5V17.25Z" stroke="#CACACA" stroke-width="2.25" stroke-linecap="round" stroke-linejoin="round"/>
<path d="M24.6667 21.28V23.28C24.6675 23.4657 24.6294 23.6494 24.555 23.8195C24.4807 23.9897 24.3716 24.1424 24.2348 24.2679C24.0979 24.3934 23.9364 24.489 23.7605 24.5485C23.5847 24.6079 23.3983 24.63 23.2134 24.6133C21.1619 24.3904 19.1914 23.6894 17.46 22.5667C15.8493 21.5431 14.4836 20.1774 13.46 18.5667C12.3334 16.8275 11.6322 14.8473 11.4134 12.7866C11.3967 12.6023 11.4186 12.4165 11.4777 12.2411C11.5368 12.0656 11.6318 11.9044 11.7565 11.7677C11.8813 11.631 12.0332 11.5218 12.2026 11.447C12.3719 11.3722 12.5549 11.3335 12.74 11.3333H14.74C15.0636 11.3301 15.3772 11.4447 15.6225 11.6557C15.8679 11.8666 16.0281 12.1596 16.0734 12.48C16.1578 13.12 16.3143 13.7485 16.54 14.3533C16.6297 14.5919 16.6491 14.8513 16.596 15.1006C16.5428 15.3499 16.4193 15.5787 16.24 15.76L15.3934 16.6066C16.3424 18.2757 17.7243 19.6576 19.3934 20.6067L20.24 19.76C20.4213 19.5807 20.6501 19.4572 20.8994 19.404C21.1488 19.3509 21.4081 19.3703 21.6467 19.46C22.2516 19.6857 22.88 19.8422 23.52 19.9267C23.8439 19.9723 24.1396 20.1355 24.3511 20.385C24.5625 20.6345 24.6748 20.953 24.6667 21.28Z" fill="#CACACA" stroke="#CACACA" stroke-width="0.333333" stroke-linecap="round" stroke-linejoin="round"/>
</svg>
